<svg width="208" height="82" viewBox="0 0 208 82" fill="none" xmlns="http://www.w3.org/2000/svg">
<rect width="208" height="82" fill="black" fill-opacity="0"/>
<rect width="208" height="82" rx="16" fill="#969696"/>
<g clip-path="url(#clip0)">
<rect width="49.9998" height="50" fill="black" fill-opacity="0" transform="translate(142 16)"/>
<rect width="49.9999" height="50.0002" fill="black" fill-opacity="0" transform="translate(142 16)"/>
<path d="M182.361 38.8707H173.216C173.016 38.8707 172.78 39.0119 172.674 39.1766L167.194 48.2119C167.088 48.3766 166.935 48.3766 166.829 48.2119L161.408 39.1766C161.314 39.0119 161.067 38.8707 160.878 38.8707H151.687C151.486 38.8707 151.427 39.0002 151.533 39.1649L162.363 55.306C162.469 55.4708 162.563 55.7531 162.563 55.9531V65.6472C162.563 65.8355 162.728 66.0002 162.917 66.0002H171.13C171.319 66.0002 171.484 65.8355 171.484 65.6472V55.9531C171.484 55.7649 171.578 55.4708 171.684 55.306L182.525 39.1649C182.632 39.0002 182.561 38.8707 182.361 38.8707Z" fill="white"/>
<path d="M155.835 49.6118C155.764 49.5648 155.634 49.5295 155.422 49.5295C151.368 49.5177 152.04 53.4118 152.205 54.8236C153.584 54.4824 157.484 53.753 156.047 49.9648C155.976 49.8001 155.893 49.6589 155.835 49.6118Z" fill="white"/>
<path d="M153.525 46.7766C153.631 46.506 153.713 46.2354 153.69 46.106C153.666 45.9766 153.56 45.7648 153.348 45.506C149 40.4707 145.288 45.706 143.862 47.4942C145.736 48.8354 150.756 52.8237 153.525 46.7766Z" fill="white"/>
<path d="M149.424 40.8589C149.554 40.6825 149.66 40.506 149.671 40.4119C149.683 40.3178 149.636 40.1531 149.506 39.9295C147.091 35.6472 143.379 38.6942 142 39.7178C143.178 40.9884 146.289 44.6472 149.424 40.8589Z" fill="white"/>
<path d="M153.607 29.0824C153.819 29.0706 154.02 29.0353 154.102 28.9883C154.185 28.9294 154.279 28.7883 154.361 28.5647C156.094 23.9647 151.38 23.0824 149.707 22.6824C149.506 24.3765 148.682 29.1059 153.607 29.0824Z" fill="white"/>
<path d="M160.254 27.6001C160.489 27.6472 160.713 27.6707 160.819 27.6236C160.925 27.5884 161.067 27.4589 161.22 27.2236C164.354 22.6942 159.452 20.4589 157.744 19.5648C157.072 21.3766 154.904 26.2942 160.254 27.6001Z" fill="white"/>
<path d="M160.949 36.9883C161.243 36.9648 161.514 36.9177 161.632 36.8471C161.738 36.7765 161.88 36.5883 162.021 36.2824C164.696 30.1883 158.368 29.1177 156.129 28.6118C155.728 30.8706 154.291 37.1177 160.949 36.9883Z" fill="white"/>
<path d="M166.523 42.9413C166.711 43.0472 166.888 43.1413 166.982 43.1413C167.077 43.1413 167.241 43.0825 167.442 42.9413C171.496 40.1531 168.125 36.7413 166.982 35.459C165.851 36.7413 162.469 40.1531 166.523 42.9413Z" fill="white"/>
<path d="M166.994 26.5883C165.851 27.8706 162.481 31.2941 166.534 34.0706C166.723 34.1765 166.9 34.2706 166.994 34.2706C167.088 34.2706 167.253 34.2118 167.454 34.0706C171.507 31.2941 168.137 27.8706 166.994 26.5883Z" fill="white"/>
<path d="M166.393 24.9059C166.629 25.0353 166.864 25.1412 166.982 25.1412C167.1 25.1412 167.312 25.0706 167.571 24.9059C172.756 21.5882 168.444 17.5294 166.982 16C165.533 17.5294 161.22 21.6 166.393 24.9059Z" fill="white"/>
<path d="M173.181 27.6236C173.287 27.6589 173.511 27.6354 173.746 27.6001C179.096 26.2942 176.94 21.3765 176.256 19.5765C174.548 20.4707 169.645 22.7059 172.78 27.2354C172.945 27.4589 173.086 27.5883 173.181 27.6236Z" fill="white"/>
<path d="M172.379 36.8471C172.485 36.9177 172.768 36.9648 173.063 36.9883C179.721 37.1177 178.283 30.8589 177.894 28.6118C175.655 29.1177 169.327 30.1883 172.002 36.2824C172.12 36.5883 172.262 36.7765 172.379 36.8471Z" fill="white"/>
<path d="M179.898 28.9765C179.98 29.0353 180.18 29.0588 180.393 29.0706C185.307 29.0941 184.493 24.3647 184.293 22.6588C182.62 23.0706 177.894 23.9529 179.638 28.5412C179.733 28.7882 179.827 28.9294 179.898 28.9765Z" fill="white"/>
<path d="M180.935 34.5295C180.911 34.8707 180.946 35.0942 181.005 35.2118C181.064 35.3295 181.288 35.4942 181.536 35.6471C187.369 38.8707 189.019 32.6707 189.726 30.4942C187.522 29.9059 181.418 27.9059 180.935 34.5295Z" fill="white"/>
<path d="M184.493 39.9413C184.376 40.1531 184.328 40.3178 184.328 40.4237C184.34 40.5178 184.446 40.6942 184.576 40.8707C187.71 44.6472 190.821 40.9884 192 39.7413C190.621 38.706 186.909 35.6589 184.493 39.9413Z" fill="white"/>
<path d="M180.664 45.5177C180.44 45.7765 180.334 45.9765 180.322 46.1177C180.298 46.2471 180.381 46.5177 180.487 46.7883C183.256 52.8353 188.276 48.8353 190.15 47.5059C188.712 45.7059 185 40.4706 180.664 45.5177Z" fill="white"/>
<path d="M178.578 49.5295C178.377 49.5295 178.236 49.5648 178.165 49.6118C178.095 49.6589 178.024 49.8001 177.941 49.9648C176.504 53.753 180.404 54.4824 181.783 54.8236C181.96 53.4118 182.632 49.5177 178.578 49.5295Z" fill="white"/>
<path d="M152.464 35.6589C152.712 35.4942 152.936 35.3413 152.995 35.2236C153.053 35.106 153.089 34.8707 153.065 34.5413C152.57 27.906 146.478 29.906 144.263 30.506C144.981 32.6824 146.631 38.8707 152.464 35.6589Z" fill="white"/>
</g>
<rect width="110" height="27.0716" fill="black" fill-opacity="0" transform="translate(16 36)"/>
<rect width="110" height="27.1438" fill="black" fill-opacity="0" transform="translate(16 36)"/>
<path d="M33.4667 53.0574V62.7246H25.34V53.0574L16 36H25.3015L29.5574 44.1814C30.9825 41.5379 32.3883 38.5663 33.7363 36H42.6527L33.4667 53.0574Z" fill="white"/>
<path d="M58.8484 62.7246L51.2416 50.2492V62.7246H43.5578V36H50.4905L58.0973 48.2825V36H65.7426V62.7246H58.8484Z" fill="white"/>
<path d="M85.0581 57.9812H77.2202L75.6411 62.7246H66.9752L76.7388 36H86.0788L95.6113 62.7246H86.5795L85.0581 57.9812ZM81.1488 45.7566L79.1075 51.8689H83.2094L81.1488 45.7566Z" fill="white"/>
<path d="M107.686 62.7246H96.8053V36H107.127C113.232 36 116.776 38.603 116.776 43.3464C116.776 45.718 115.562 47.6462 113.54 49.1116C115.62 50.2878 116.93 52.6595 116.93 55.0697C116.949 59.9866 113.483 62.7246 107.686 62.7246ZM106.55 42.228H104.585V46.5664H106.685C107.705 46.5664 108.61 45.7373 108.61 44.2719C108.591 43.1343 107.84 42.228 106.55 42.228ZM106.376 52.0617H104.566V56.5158H106.261C107.956 56.5158 108.861 55.6867 108.861 54.337C108.861 52.9294 108.167 52.0617 106.376 52.0617Z" fill="white"/>
<path d="M117.18 58.7047C117.18 56.2429 119.144 54.2657 121.59 54.2657C124.036 54.2657 126 56.2429 126 58.7047C126 61.1666 124.036 63.1438 121.59 63.1438C119.163 63.1438 117.18 61.1666 117.18 58.7047Z" fill="white"/>
<path d="M16.084 19.878H17.666C17.8293 19.878 17.9647 19.9177 18.072 19.997C18.184 20.0717 18.2587 20.1743 18.296 20.305L20.018 26.36C20.06 26.5093 20.0973 26.6727 20.13 26.85C20.1673 27.0227 20.2023 27.207 20.235 27.403C20.2723 27.207 20.312 27.0227 20.354 26.85C20.4007 26.6727 20.4497 26.5093 20.501 26.36L22.489 20.305C22.5263 20.1977 22.5987 20.0997 22.706 20.011C22.818 19.9223 22.9533 19.878 23.112 19.878H23.665C23.8283 19.878 23.9637 19.9177 24.071 19.997C24.1783 20.0717 24.253 20.1743 24.295 20.305L26.269 26.36C26.3717 26.6587 26.4603 26.99 26.535 27.354C26.5677 27.172 26.6003 26.997 26.633 26.829C26.6703 26.661 26.7077 26.5047 26.745 26.36L28.467 20.305C28.4997 20.1883 28.572 20.088 28.684 20.004C28.796 19.92 28.9313 19.878 29.09 19.878H30.567L27.424 30H25.723L23.511 23.084C23.483 22.9953 23.4527 22.8997 23.42 22.797C23.392 22.6943 23.364 22.5847 23.336 22.468C23.308 22.5847 23.2777 22.6943 23.245 22.797C23.217 22.8997 23.189 22.9953 23.161 23.084L20.928 30H19.227L16.084 19.878Z" fill="white"/>
<path d="M34.4991 22.706C35.0358 22.706 35.5211 22.7923 35.9551 22.965C36.3938 23.1377 36.7671 23.3827 37.0751 23.7C37.3831 24.0173 37.6211 24.4047 37.7891 24.862C37.9571 25.3193 38.0411 25.8303 38.0411 26.395C38.0411 26.9643 37.9571 27.4777 37.7891 27.935C37.6211 28.3923 37.3831 28.782 37.0751 29.104C36.7671 29.426 36.3938 29.6733 35.9551 29.846C35.5211 30.0187 35.0358 30.105 34.4991 30.105C33.9625 30.105 33.4748 30.0187 33.0361 29.846C32.5975 29.6733 32.2218 29.426 31.9091 29.104C31.6011 28.782 31.3608 28.3923 31.1881 27.935C31.0201 27.4777 30.9361 26.9643 30.9361 26.395C30.9361 25.8303 31.0201 25.3193 31.1881 24.862C31.3608 24.4047 31.6011 24.0173 31.9091 23.7C32.2218 23.3827 32.5975 23.1377 33.0361 22.965C33.4748 22.7923 33.9625 22.706 34.4991 22.706ZM34.4991 28.775C35.0965 28.775 35.5375 28.5743 35.8221 28.173C36.1115 27.7717 36.2561 27.1837 36.2561 26.409C36.2561 25.6343 36.1115 25.044 35.8221 24.638C35.5375 24.232 35.0965 24.029 34.4991 24.029C33.8925 24.029 33.4445 24.2343 33.1551 24.645C32.8658 25.051 32.7211 25.639 32.7211 26.409C32.7211 27.179 32.8658 27.767 33.1551 28.173C33.4445 28.5743 33.8925 28.775 34.4991 28.775Z" fill="white"/>
<path d="M39.5302 30V22.818H40.5452C40.7225 22.818 40.8462 22.8507 40.9162 22.916C40.9862 22.9813 41.0328 23.0933 41.0562 23.252L41.1612 24.12C41.4178 23.6767 41.7188 23.3267 42.0642 23.07C42.4095 22.8133 42.7968 22.685 43.2262 22.685C43.5808 22.685 43.8748 22.7667 44.1082 22.93L43.8842 24.225C43.8702 24.309 43.8398 24.3697 43.7932 24.407C43.7465 24.4397 43.6835 24.456 43.6042 24.456C43.5342 24.456 43.4385 24.4397 43.3172 24.407C43.1958 24.3743 43.0348 24.358 42.8342 24.358C42.4748 24.358 42.1668 24.4583 41.9102 24.659C41.6535 24.855 41.4365 25.1443 41.2592 25.527V30H39.5302Z" fill="white"/>
<path d="M47.135 19.598V25.555H47.457C47.5737 25.555 47.6647 25.5387 47.73 25.506C47.7953 25.4733 47.8653 25.4127 47.94 25.324L49.725 23.119C49.8043 23.0257 49.8883 22.9533 49.977 22.902C50.0657 22.846 50.1823 22.818 50.327 22.818H51.909L49.676 25.485C49.5967 25.583 49.515 25.674 49.431 25.758C49.347 25.8373 49.256 25.9073 49.158 25.968C49.256 26.038 49.3423 26.1197 49.417 26.213C49.4917 26.3063 49.5663 26.4067 49.641 26.514L52.035 30H50.474C50.3387 30 50.2243 29.9767 50.131 29.93C50.0377 29.8833 49.9537 29.804 49.879 29.692L48.052 26.969C47.982 26.8617 47.912 26.7917 47.842 26.759C47.772 26.7263 47.667 26.71 47.527 26.71H47.135V30H45.406V19.598H47.135Z" fill="white"/>
<path d="M57.5126 24.218C57.4659 24.2927 57.4169 24.3463 57.3656 24.379C57.3143 24.407 57.2489 24.421 57.1696 24.421C57.0856 24.421 56.9946 24.3977 56.8966 24.351C56.8033 24.3043 56.6936 24.253 56.5676 24.197C56.4416 24.1363 56.2969 24.0827 56.1336 24.036C55.9749 23.9893 55.7859 23.966 55.5666 23.966C55.2259 23.966 54.9576 24.0383 54.7616 24.183C54.5656 24.3277 54.4676 24.5167 54.4676 24.75C54.4676 24.904 54.5166 25.0347 54.6146 25.142C54.7173 25.2447 54.8503 25.3357 55.0136 25.415C55.1816 25.4943 55.3706 25.5667 55.5806 25.632C55.7906 25.6927 56.0053 25.7603 56.2246 25.835C56.4439 25.9097 56.6586 25.996 56.8686 26.094C57.0786 26.1873 57.2653 26.3087 57.4286 26.458C57.5966 26.6027 57.7296 26.7777 57.8276 26.983C57.9303 27.1883 57.9816 27.4357 57.9816 27.725C57.9816 28.0703 57.9186 28.39 57.7926 28.684C57.6666 28.9733 57.4823 29.2253 57.2396 29.44C56.9969 29.65 56.6959 29.8157 56.3366 29.937C55.9819 30.0537 55.5736 30.112 55.1116 30.112C54.8643 30.112 54.6216 30.0887 54.3836 30.042C54.1503 30 53.9239 29.9393 53.7046 29.86C53.4899 29.7807 53.2893 29.6873 53.1026 29.58C52.9206 29.4727 52.7596 29.356 52.6196 29.23L53.0186 28.572C53.0699 28.4927 53.1306 28.432 53.2006 28.39C53.2706 28.348 53.3593 28.327 53.4666 28.327C53.5739 28.327 53.6743 28.3573 53.7676 28.418C53.8656 28.4787 53.9776 28.544 54.1036 28.614C54.2296 28.684 54.3766 28.7493 54.5446 28.81C54.7173 28.8707 54.9343 28.901 55.1956 28.901C55.4009 28.901 55.5759 28.8777 55.7206 28.831C55.8699 28.7797 55.9913 28.7143 56.0846 28.635C56.1826 28.5557 56.2526 28.4647 56.2946 28.362C56.3413 28.2547 56.3646 28.145 56.3646 28.033C56.3646 27.865 56.3133 27.7273 56.2106 27.62C56.1126 27.5127 55.9796 27.4193 55.8116 27.34C55.6483 27.2607 55.4593 27.1907 55.2446 27.13C55.0346 27.0647 54.8176 26.9947 54.5936 26.92C54.3743 26.8453 54.1573 26.759 53.9426 26.661C53.7326 26.5583 53.5436 26.43 53.3756 26.276C53.2123 26.122 53.0793 25.933 52.9766 25.709C52.8786 25.485 52.8296 25.2143 52.8296 24.897C52.8296 24.603 52.8879 24.323 53.0046 24.057C53.1213 23.791 53.2916 23.56 53.5156 23.364C53.7443 23.1633 54.0266 23.0047 54.3626 22.888C54.7033 22.7667 55.0953 22.706 55.5386 22.706C56.0333 22.706 56.4836 22.7877 56.8896 22.951C57.2956 23.1143 57.6339 23.329 57.9046 23.595L57.5126 24.218Z" fill="white"/>
<path d="M61.473 22.818H62.845C62.9756 22.818 63.0853 22.8483 63.174 22.909C63.2626 22.9697 63.3186 23.0467 63.342 23.14L64.371 26.976C64.427 27.186 64.4713 27.3913 64.504 27.592C64.5413 27.7927 64.5763 27.9933 64.609 28.194C64.6603 27.9933 64.714 27.7927 64.77 27.592C64.8306 27.3913 64.8936 27.186 64.959 26.976L66.149 23.126C66.177 23.0327 66.233 22.9557 66.317 22.895C66.401 22.8343 66.499 22.804 66.611 22.804H67.374C67.5 22.804 67.605 22.8343 67.689 22.895C67.773 22.9557 67.829 23.0327 67.857 23.126L69.033 27.046C69.0936 27.2467 69.1473 27.4427 69.194 27.634C69.2453 27.8207 69.2943 28.0097 69.341 28.201C69.3736 28.0003 69.4086 27.7997 69.446 27.599C69.488 27.3983 69.5393 27.1907 69.6 26.976L70.664 23.14C70.6873 23.0467 70.7433 22.9697 70.832 22.909C70.9206 22.8483 71.0233 22.818 71.14 22.818H72.449L70.174 30H68.781C68.6316 30 68.5243 29.8973 68.459 29.692L67.164 25.541C67.122 25.4057 67.0823 25.2703 67.045 25.135C67.0123 24.995 66.9843 24.8573 66.961 24.722C66.933 24.862 66.9026 25.002 66.87 25.142C66.8373 25.2773 66.8 25.415 66.758 25.555L65.449 29.692C65.3836 29.8973 65.2576 30 65.071 30H63.748L61.473 22.818Z" fill="white"/>
<path d="M75.4032 22.818V30H73.6742V22.818H75.4032ZM75.6622 20.725C75.6622 20.8743 75.6319 21.0143 75.5712 21.145C75.5105 21.2757 75.4289 21.39 75.3262 21.488C75.2282 21.586 75.1115 21.6653 74.9762 21.726C74.8409 21.782 74.6962 21.81 74.5422 21.81C74.3929 21.81 74.2505 21.782 74.1152 21.726C73.9845 21.6653 73.8702 21.586 73.7722 21.488C73.6742 21.39 73.5949 21.2757 73.5342 21.145C73.4782 21.0143 73.4502 20.8743 73.4502 20.725C73.4502 20.571 73.4782 20.4263 73.5342 20.291C73.5949 20.1557 73.6742 20.039 73.7722 19.941C73.8702 19.843 73.9845 19.766 74.1152 19.71C74.2505 19.6493 74.3929 19.619 74.5422 19.619C74.6962 19.619 74.8409 19.6493 74.9762 19.71C75.1115 19.766 75.2282 19.843 75.3262 19.941C75.4289 20.039 75.5105 20.1557 75.5712 20.291C75.6319 20.4263 75.6622 20.571 75.6622 20.725Z" fill="white"/>
<path d="M79.862 30.112C79.2413 30.112 78.763 29.937 78.427 29.587C78.091 29.2323 77.923 28.7447 77.923 28.124V24.113H77.195C77.1016 24.113 77.02 24.0827 76.95 24.022C76.8846 23.9613 76.852 23.8703 76.852 23.749V23.063L78.007 22.874L78.371 20.914C78.3896 20.8207 78.4316 20.7483 78.497 20.697C78.567 20.6457 78.6533 20.62 78.756 20.62H79.652V22.881H81.542V24.113H79.652V28.005C79.652 28.229 79.708 28.404 79.82 28.53C79.932 28.656 80.0813 28.719 80.268 28.719C80.3753 28.719 80.464 28.7073 80.534 28.684C80.6086 28.656 80.6716 28.628 80.723 28.6C80.779 28.572 80.828 28.5463 80.87 28.523C80.912 28.495 80.954 28.481 80.996 28.481C81.0473 28.481 81.0893 28.495 81.122 28.523C81.1546 28.5463 81.1896 28.5837 81.227 28.635L81.745 29.475C81.493 29.685 81.2036 29.8437 80.877 29.951C80.5503 30.0583 80.212 30.112 79.862 30.112Z" fill="white"/>
<path d="M83.057 30V19.598H84.786V23.595C85.066 23.329 85.374 23.1143 85.71 22.951C86.046 22.7877 86.4404 22.706 86.893 22.706C87.285 22.706 87.6327 22.7737 87.936 22.909C88.2394 23.0397 88.4914 23.2263 88.692 23.469C88.8974 23.707 89.0514 23.994 89.154 24.33C89.2614 24.6613 89.315 25.0277 89.315 25.429V30H87.586V25.429C87.586 24.9903 87.4834 24.652 87.278 24.414C87.0774 24.1713 86.774 24.05 86.368 24.05C86.0694 24.05 85.7894 24.1177 85.528 24.253C85.2667 24.3883 85.0194 24.5727 84.786 24.806V30H83.057Z" fill="white"/>
<defs>
<clipPath id="clip0">
<rect width="49.9998" height="50" fill="white" transform="translate(142 16)"/>
</clipPath>
</defs>
</svg>
